<?xml version="1.0" encoding="UTF-8" standalone="no"?>
<!DOCTYPE svg PUBLIC "-//W3C//DTD SVG 1.1//EN"
 "http://www.w3.org/Graphics/SVG/1.1/DTD/svg11.dtd">
<!-- Generated by graphviz version 9.0.0 (20230911.1827)
 -->
<!-- Title: VillainHierarchy Pages: 1 -->
<svg width="426pt" height="824pt"
 viewBox="0.00 0.00 425.50 823.53" xmlns="http://www.w3.org/2000/svg" xmlns:xlink="http://www.w3.org/1999/xlink">
<g id="graph0" class="graph" transform="scale(1 1) rotate(0) translate(4 819.53)">
<title>VillainHierarchy</title>
<polygon fill="white" stroke="none" points="-4,4 -4,-819.53 421.5,-819.53 421.5,4 -4,4"/>
<!-- AI -->
<g id="node1" class="node">
<title>AI</title>
<polygon fill="#e53935" stroke="black" points="319.72,-779.27 319.72,-800.51 287.67,-815.53 242.33,-815.53 210.28,-800.51 210.28,-779.27 242.33,-764.25 287.67,-764.25 319.72,-779.27"/>
<text text-anchor="middle" x="265" y="-793.14" font-family="Helvetica,sans-Serif" font-size="10.00" fill="white">Ancient A.I.</text>
<text text-anchor="middle" x="265" y="-780.39" font-family="Helvetica,sans-Serif" font-size="10.00" fill="white">Signal</text>
</g>
<!-- Draco -->
<g id="node2" class="node">
<title>Draco</title>
<polygon fill="#c62828" stroke="black" points="256.38,-718.5 191.62,-718.5 191.62,-682.5 256.38,-682.5 256.38,-718.5"/>
<text text-anchor="middle" x="224" y="-703.75" font-family="Helvetica,sans-Serif" font-size="10.00" fill="white">Draco</text>
<text text-anchor="middle" x="224" y="-691" font-family="Helvetica,sans-Serif" font-size="10.00" fill="white">Reptilians</text>
</g>
<!-- AI&#45;&gt;Draco -->
<g id="edge1" class="edge">
<title>AI&#45;&gt;Draco</title>
<path fill="none" stroke="red" d="M253.36,-764.08C248.23,-753.14 242.18,-740.25 236.91,-729.02"/>
<polygon fill="red" stroke="red" points="240.21,-727.82 232.8,-720.25 233.88,-730.79 240.21,-727.82"/>
<text text-anchor="middle" x="258.88" y="-738.65" font-family="Helvetica,sans-Serif" font-size="8.00">infests</text>
</g>
<!-- Orion -->
<g id="node3" class="node">
<title>Orion</title>
<polygon fill="#b71c1c" stroke="black" points="338,-718.5 274,-718.5 274,-682.5 338,-682.5 338,-718.5"/>
<text text-anchor="middle" x="306" y="-703.75" font-family="Helvetica,sans-Serif" font-size="10.00" fill="white">Orion</text>
<text text-anchor="middle" x="306" y="-691" font-family="Helvetica,sans-Serif" font-size="10.00" fill="white">Syndicate</text>
</g>
<!-- AI&#45;&gt;Orion -->
<g id="edge2" class="edge">
<title>AI&#45;&gt;Orion</title>
<path fill="none" stroke="red" d="M276.64,-764.08C281.77,-753.14 287.82,-740.25 293.09,-729.02"/>
<polygon fill="red" stroke="red" points="296.12,-730.79 297.2,-720.25 289.79,-727.82 296.12,-730.79"/>
</g>
<!-- PreAdam -->
<g id="node4" class="node">
<title>PreAdam</title>
<polygon fill="#f48fb1" stroke="black" points="265,-636.75 183,-636.75 183,-600.75 265,-600.75 265,-636.75"/>
<text text-anchor="middle" x="224" y="-615.62" font-family="Helvetica,sans-Serif" font-size="10.00">Pre&#45;Adamites</text>
</g>
<!-- Draco&#45;&gt;PreAdam -->
<g id="edge3" class="edge">
<title>Draco&#45;&gt;PreAdam</title>
<path fill="none" stroke="black" d="M224,-682.2C224,-672.27 224,-659.56 224,-648.2"/>
<polygon fill="black" stroke="black" points="227.5,-648.53 224,-638.53 220.5,-648.53 227.5,-648.53"/>
<text text-anchor="middle" x="243.12" y="-656.9" font-family="Helvetica,sans-Serif" font-size="8.00">bloodline</text>
</g>
<!-- Annunaki -->
<g id="node5" class="node">
<title>Annunaki</title>
<polygon fill="#f06292" stroke="black" points="254.88,-563.75 193.12,-563.75 193.12,-527.75 254.88,-527.75 254.88,-563.75"/>
<text text-anchor="middle" x="224" y="-542.62" font-family="Helvetica,sans-Serif" font-size="10.00">Annunaki</text>
</g>
<!-- PreAdam&#45;&gt;Annunaki -->
<g id="edge4" class="edge">
<title>PreAdam&#45;&gt;Annunaki</title>
<path fill="none" stroke="black" d="M224,-600.56C224,-592.98 224,-583.85 224,-575.29"/>
<polygon fill="black" stroke="black" points="227.5,-575.29 224,-565.29 220.5,-575.29 227.5,-575.29"/>
</g>
<!-- Babylon -->
<g id="node6" class="node">
<title>Babylon</title>
<polygon fill="#ce93d8" stroke="black" points="259.38,-482 188.62,-482 188.62,-446 259.38,-446 259.38,-482"/>
<text text-anchor="middle" x="224" y="-467.25" font-family="Helvetica,sans-Serif" font-size="10.00">Babylonian</text>
<text text-anchor="middle" x="224" y="-454.5" font-family="Helvetica,sans-Serif" font-size="10.00">Priesthood</text>
</g>
<!-- Annunaki&#45;&gt;Babylon -->
<g id="edge5" class="edge">
<title>Annunaki&#45;&gt;Babylon</title>
<path fill="none" stroke="black" d="M224,-527.45C224,-517.52 224,-504.81 224,-493.45"/>
<polygon fill="black" stroke="black" points="227.5,-493.78 224,-483.78 220.5,-493.78 227.5,-493.78"/>
<text text-anchor="middle" x="241.62" y="-502.15" font-family="Helvetica,sans-Serif" font-size="8.00">installed</text>
</g>
<!-- Templar -->
<g id="node7" class="node">
<title>Templar</title>
<polygon fill="#ba68c8" stroke="black" points="271.38,-409 176.62,-409 176.62,-373 271.38,-373 271.38,-409"/>
<text text-anchor="middle" x="224" y="-387.88" font-family="Helvetica,sans-Serif" font-size="10.00">Knights Templar</text>
</g>
<!-- Babylon&#45;&gt;Templar -->
<g id="edge6" class="edge">
<title>Babylon&#45;&gt;Templar</title>
<path fill="none" stroke="black" d="M224,-445.81C224,-438.23 224,-429.1 224,-420.54"/>
<polygon fill="black" stroke="black" points="227.5,-420.54 224,-410.54 220.5,-420.54 227.5,-420.54"/>
</g>
<!-- Masons -->
<g id="node8" class="node">
<title>Masons</title>
<polygon fill="#ab47bc" stroke="black" points="261.62,-336 186.38,-336 186.38,-300 261.62,-300 261.62,-336"/>
<text text-anchor="middle" x="224" y="-314.88" font-family="Helvetica,sans-Serif" font-size="10.00" fill="white">Freemasons</text>
</g>
<!-- Templar&#45;&gt;Masons -->
<g id="edge7" class="edge">
<title>Templar&#45;&gt;Masons</title>
<path fill="none" stroke="black" d="M224,-372.81C224,-365.23 224,-356.1 224,-347.54"/>
<polygon fill="black" stroke="black" points="227.5,-347.54 224,-337.54 220.5,-347.54 227.5,-347.54"/>
</g>
<!-- Illuminati -->
<g id="node9" class="node">
<title>Illuminati</title>
<polygon fill="#7986cb" stroke="black" points="255.25,-263 192.75,-263 192.75,-227 255.25,-227 255.25,-263"/>
<text text-anchor="middle" x="224" y="-241.88" font-family="Helvetica,sans-Serif" font-size="10.00">Illuminati</text>
</g>
<!-- Masons&#45;&gt;Illuminati -->
<g id="edge8" class="edge">
<title>Masons&#45;&gt;Illuminati</title>
<path fill="none" stroke="black" d="M224,-299.81C224,-292.23 224,-283.1 224,-274.54"/>
<polygon fill="black" stroke="black" points="227.5,-274.54 224,-264.54 220.5,-274.54 227.5,-274.54"/>
</g>
<!-- DS -->
<g id="node10" class="node">
<title>DS</title>
<polygon fill="#1565c0" stroke="black" points="299.36,-160.54 299.36,-175.46 255.21,-186 192.79,-186 148.64,-175.46 148.64,-160.54 192.79,-150 255.21,-150 299.36,-160.54"/>
<polygon fill="none" stroke="black" points="303.36,-157.39 303.36,-178.61 255.69,-190 192.31,-190 144.64,-178.61 144.64,-157.39 192.31,-146 255.69,-146 303.36,-157.39"/>
<text text-anchor="middle" x="224" y="-163.32" font-family="Helvetica,sans-Serif" font-size="14.00" fill="white">DEEP STATE</text>
</g>
<!-- Illuminati&#45;&gt;DS -->
<g id="edge9" class="edge">
<title>Illuminati&#45;&gt;DS</title>
<path fill="none" stroke="black" d="M224,-226.6C224,-219.17 224,-210.23 224,-201.64"/>
<polygon fill="black" stroke="black" points="227.5,-201.83 224,-191.83 220.5,-201.83 227.5,-201.83"/>
</g>
<!-- Vatican -->
<g id="node11" class="node">
<title>Vatican</title>
<polygon fill="#90caf9" stroke="black" points="54,-109 0,-109 0,-73 54,-73 54,-109"/>
<text text-anchor="middle" x="27" y="-87.88" font-family="Helvetica,sans-Serif" font-size="10.00">Vatican</text>
</g>
<!-- DS&#45;&gt;Vatican -->
<g id="edge10" class="edge">
<title>DS&#45;&gt;Vatican</title>
<path fill="none" stroke="black" d="M173.49,-150.19C144.02,-140.07 106,-126.48 64.91,-109.62"/>
<polygon fill="black" stroke="black" points="66.37,-106.44 55.79,-105.85 63.69,-112.91 66.37,-106.44"/>
</g>
<!-- London -->
<g id="node12" class="node">
<title>London</title>
<polygon fill="#90caf9" stroke="black" points="158.25,-109 71.75,-109 71.75,-73 158.25,-73 158.25,-109"/>
<text text-anchor="middle" x="115" y="-87.88" font-family="Helvetica,sans-Serif" font-size="10.00">City of London</text>
</g>
<!-- DS&#45;&gt;London -->
<g id="edge11" class="edge">
<title>DS&#45;&gt;London</title>
<path fill="none" stroke="black" d="M192.76,-145.51C179.27,-136.22 163.43,-125.33 149.59,-115.8"/>
<polygon fill="black" stroke="black" points="151.84,-113.1 141.62,-110.31 147.87,-118.87 151.84,-113.1"/>
</g>
<!-- DC -->
<g id="node13" class="node">
<title>DC</title>
<polygon fill="#90caf9" stroke="black" points="272.12,-109 175.88,-109 175.88,-73 272.12,-73 272.12,-109"/>
<text text-anchor="middle" x="224" y="-87.88" font-family="Helvetica,sans-Serif" font-size="10.00">Washington D.C.</text>
</g>
<!-- DS&#45;&gt;DC -->
<g id="edge12" class="edge">
<title>DS&#45;&gt;DC</title>
<path fill="none" stroke="black" d="M224,-145.71C224,-137.82 224,-128.75 224,-120.33"/>
<polygon fill="black" stroke="black" points="227.5,-120.57 224,-110.57 220.5,-120.57 227.5,-120.57"/>
</g>
<!-- CIA -->
<g id="node14" class="node">
<title>CIA</title>
<polygon fill="#64b5f6" stroke="black" points="344,-109 290,-109 290,-73 344,-73 344,-109"/>
<text text-anchor="middle" x="317" y="-87.88" font-family="Helvetica,sans-Serif" font-size="10.00">CIA</text>
</g>
<!-- DS&#45;&gt;CIA -->
<g id="edge13" class="edge">
<title>DS&#45;&gt;CIA</title>
<path fill="none" stroke="black" d="M250.4,-145.71C261.78,-136.53 275.16,-125.74 286.92,-116.26"/>
<polygon fill="black" stroke="black" points="288.78,-119.26 294.37,-110.25 284.38,-113.81 288.78,-119.26"/>
</g>
<!-- MKU -->
<g id="node17" class="node">
<title>MKU</title>
<polygon fill="#80cbc4" stroke="black" points="417.5,-109 362.5,-109 362.5,-73 417.5,-73 417.5,-109"/>
<text text-anchor="middle" x="390" y="-87.88" font-family="Helvetica,sans-Serif" font-size="10.00">MKUltra</text>
</g>
<!-- DS&#45;&gt;MKU -->
<g id="edge16" class="edge">
<title>DS&#45;&gt;MKU</title>
<path fill="none" stroke="black" d="M266.16,-148.15C289.11,-137.86 318.24,-124.77 352,-109.44"/>
<polygon fill="black" stroke="black" points="353.1,-112.78 360.75,-105.46 350.2,-106.41 353.1,-112.78"/>
</g>
<!-- Finance -->
<g id="node16" class="node">
<title>Finance</title>
<polygon fill="#80cbc4" stroke="black" points="153,-36 77,-36 77,0 153,0 153,-36"/>
<text text-anchor="middle" x="115" y="-14.88" font-family="Helvetica,sans-Serif" font-size="10.00">Fed Reserve</text>
</g>
<!-- London&#45;&gt;Finance -->
<g id="edge15" class="edge">
<title>London&#45;&gt;Finance</title>
<path fill="none" stroke="black" d="M115,-72.81C115,-65.23 115,-56.1 115,-47.54"/>
<polygon fill="black" stroke="black" points="118.5,-47.54 115,-37.54 111.5,-47.54 118.5,-47.54"/>
</g>
<!-- Media -->
<g id="node15" class="node">
<title>Media</title>
<polygon fill="#80cbc4" stroke="black" points="344,-36 290,-36 290,0 344,0 344,-36"/>
<text text-anchor="middle" x="317" y="-14.88" font-family="Helvetica,sans-Serif" font-size="10.00">Media</text>
</g>
<!-- CIA&#45;&gt;Media -->
<g id="edge14" class="edge">
<title>CIA&#45;&gt;Media</title>
<path fill="none" stroke="black" d="M317,-72.81C317,-65.23 317,-56.1 317,-47.54"/>
<polygon fill="black" stroke="black" points="320.5,-47.54 317,-37.54 313.5,-47.54 320.5,-47.54"/>
</g>
</g>
</svg>
